# xmcd
#
# Track frame offsets: 
#        150
#        14079
#        31691
#        55829
#        74633
#        90480
#        112199
#        129635
#        146158
#        164088
#        184432
#        203477
#        228119
#        246642
#        259940
#        282082
#        295276
#
# Disc length: 4147 seconds
#
# Revision: 0
# Processed by: cddbd v1.5.2PL0 Copyright (c) Steve Scherf et al.
# Submitted via: ExactAudioCopy v1.0b1
#
DISCID=0e103111
DTITLE=Bruce Willis - The Universal Masters Collection
DYEAR=1999
DGENRE=General Mainstream Rock
TTITLE0=Under The Boardwalk
TTITLE1=Respect Yourself
TTITLE2=Down In Hollywood
TTITLE3=Young Blood
TTITLE4=Comin' Right Up
TTITLE5=Secret Agent Man - James Bond Is Back
TTITLE6=Save The Last Dance For Me
TTITLE7=Fun Time
TTITLE8=Lose Myself
TTITLE9=Flirting With Disaster
TTITLE10=Jackpot (Bruno's Bop)
TTITLE11=Blues For Mr. D
TTITLE12=Tenth Avenue Tango
TTITLE13=Love Makes The World Go Round
TTITLE14=Here Comes Trouble Again
TTITLE15=Soul Shake
TTITLE16=I'll Go Crazy
EXTD=
EXTT0=
EXTT1=
EXTT2=
EXTT3=
EXTT4=
EXTT5=
EXTT6=
EXTT7=
EXTT8=
EXTT9=
EXTT10=
EXTT11=
EXTT12=
EXTT13=
EXTT14=
EXTT15=
EXTT16=
PLAYORDER=
